<svg width="32" height="32" viewBox="0 0 32 32" fill="none" xmlns="http://www.w3.org/2000/svg">
  <rect width="32" height="32" rx="4" fill="#FFFFFF"/>
  <path d="M7 8H14C15.0609 8 16.0783 8.42143 16.8284 9.17157C17.5786 9.92172 18 10.9391 18 12C18 13.0609 17.5786 14.0783 16.8284 14.8284C16.0783 15.5786 15.0609 16 14 16H7V8Z" fill="#FF5C39"/>
  <path d="M7 16H14C15.0609 16 16.0783 16.4214 16.8284 17.1716C17.5786 17.9217 18 18.9391 18 20C18 21.0609 17.5786 22.0783 16.8284 22.8284C16.0783 23.5786 15.0609 24 14 24H7V16Z" fill="#FF5C39"/>
  <path d="M21 14C19.9391 14 18.9217 13.5786 18.1716 12.8284C17.4214 12.0783 17 11.0609 17 10V8H25V10C25 11.0609 24.5786 12.0783 23.8284 12.8284C23.0783 13.5786 22.0609 14 21 14Z" fill="#FFB238"/>
  <path d="M17 20V24H25V20C25 18.9391 24.5786 17.9217 23.8284 17.1716C23.0783 16.4214 22.0609 16 21 16C19.9391 16 18.9217 16.4214 18.1716 17.1716C17.4214 17.9217 17 18.9391 17 20Z" fill="#FFB238"/>
</svg>